<?xml version="1.0" encoding="UTF-8" standalone="no"?>
<!-- Created with Inkscape (http://www.inkscape.org/) -->

<svg
   width="32"
   height="32"
   viewBox="0 0 32 32"
   version="1.1"
   id="svg1"
   inkscape:version="1.3 (0e150ed6c4, 2023-07-21)"
   sodipodi:docname="hyperlink_icon.svg"
   xmlns:inkscape="http://www.inkscape.org/namespaces/inkscape"
   xmlns:sodipodi="http://sodipodi.sourceforge.net/DTD/sodipodi-0.dtd"
   xmlns="http://www.w3.org/2000/svg"
   xmlns:svg="http://www.w3.org/2000/svg">
  <sodipodi:namedview
     id="namedview1"
     pagecolor="#ffffff"
     bordercolor="#111111"
     borderopacity="1"
     inkscape:showpageshadow="0"
     inkscape:pageopacity="0"
     inkscape:pagecheckerboard="1"
     inkscape:deskcolor="#d1d1d1"
     inkscape:document-units="px"
     inkscape:zoom="26"
     inkscape:cx="16"
     inkscape:cy="16"
     inkscape:window-width="1920"
     inkscape:window-height="1017"
     inkscape:window-x="-8"
     inkscape:window-y="-8"
     inkscape:window-maximized="1"
     inkscape:current-layer="layer1" />
  <defs
     id="defs1" />
  <g
     inkscape:label="Layer 1"
     inkscape:groupmode="layer"
     id="layer1">
    <path
       id="path8"
       style="color:#000000;fill:#333333;fill-opacity:1;stroke-width:2;stroke-linecap:round;stroke-linejoin:round;stroke:#ffffff;stroke-opacity:1;stroke-dasharray:none;paint-order:stroke fill markers"
       d="m 24.063302,1.3637319 c -1.69176,-6.393e-4 -3.384322,0.639439 -4.664881,1.919255 a 1.8317928,1.8317928 0 0 0 -0.07512,0.080491 c -0.02245,0.025324 -0.04413,0.051248 -0.06618,0.076913 L 18.225047,4.47246 13.279342,9.4181638 13.139825,9.557681 c 0.689791,-0.2000629 1.402291,-0.3007695 2.114222,-0.3004985 0.958391,3.647e-4 1.916763,0.1855561 2.818961,0.5491251 l 2.742049,-2.743837 1.080363,-1.0785749 a 1.8317928,1.8317928 0 0 0 0.105533,-0.1180529 c 0.578686,-0.5724139 1.318964,-0.8624247 2.060561,-0.8621444 0.746488,2.821e-4 1.493188,0.290655 2.073081,0.8710878 a 1.8317928,1.8317928 0 0 0 0,0.00179 c 1.145376,1.1457117 1.161715,2.9455776 0.03577,4.1103897 a 1.8317928,1.8317928 0 0 0 0,0.00358 l -1.214515,1.2145151 -4.943916,4.943914 -1.214513,1.214515 a 1.8317928,1.8317928 0 0 0 -0.0036,0 c -1.164812,1.125947 -2.964675,1.1096 -4.110389,-0.03577 -0.557072,-0.556552 -0.843567,-1.265951 -0.865721,-1.98186 -0.02476,0.0289 -0.0485,0.05855 -0.07512,0.08586 a 0.91589641,0.91589641 0 0 1 -0.0089,0.0089 l -1.080364,1.080363 -1.756485,1.756485 c 0.30362,0.592791 0.70243,1.148273 1.196628,1.64201 2.530132,2.529388 6.673381,2.563399 9.245693,0.07691 h -0.0089 a 1.8317928,1.8317928 0 0 0 0.03399,-0.01967 l 1.237768,-1.237768 4.943914,-4.943915 1.239557,-1.237768 a 1.8317928,1.8317928 0 0 0 0.01789,-0.02504 v -0.0018 a 1.8317928,1.8317928 0 0 0 0.03577,-0.05366 1.8317928,1.8317928 0 0 0 0.347005,-0.54197 C 31.179427,9.3522244 31.082084,5.6429469 28.726395,3.2865643 27.446802,2.0057807 25.75506,1.3643713 24.063302,1.3637319 Z m -8.809255,8.8092551 c -1.691758,-6.44e-4 -3.384317,0.639442 -4.664881,1.919255 -0.02584,0.02607 -0.05089,0.05292 -0.07512,0.08049 -0.02189,0.02469 -0.04288,0.05011 -0.06439,0.07513 L 9.4157908,13.281715 4.470087,18.22742 3.4380178,19.259489 c -0.025669,0.02205 -0.051587,0.04373 -0.076913,0.06618 -0.027577,0.02423 -0.054419,0.04928 -0.080491,0.07512 -2.55963463,2.561121 -2.55799919,6.768787 0.00358,9.327974 2.5301328,2.529387 6.67338,2.5634 9.2456942,0.07691 h -0.0089 c 0.01139,-0.0059 0.02272,-0.01181 0.03398,-0.01789 l 1.237767,-1.239557 4.943915,-4.943914 0.171713,-0.171714 c -1.62358,0.482262 -3.380178,0.408926 -4.960012,-0.220008 l -2.745625,2.745626 -1.2145157,1.214515 h -0.00358 c -1.164814,1.125946 -2.9646761,1.109597 -4.1103897,-0.03577 h -0.00179 c -1.1570623,-1.155984 -1.1575411,-2.972453 -0.00894,-4.133642 0.040854,-0.03346 0.080242,-0.06867 0.1180529,-0.105533 l 1.0785748,-1.080363 4.9457037,-4.943915 1.080363,-1.080364 c 0.03686,-0.03781 0.07207,-0.0772 0.105533,-0.118053 0.578687,-0.572411 1.318966,-0.862426 2.060561,-0.862144 0.746488,2.84e-4 1.493189,0.292443 2.073082,0.872876 0.559284,0.559452 0.846383,1.274873 0.865721,1.996169 0.07984,-0.09105 0.151442,-0.156212 0.227163,-0.234318 l 0.946212,-0.946212 1.742176,-1.742176 C 20.808476,13.16054 20.417484,12.596267 19.91718,12.095813 18.63759,10.815028 16.945846,10.173624 15.254088,10.17298 Z" />
  </g>
</svg>
